<?xml version="1.0" encoding="utf-8"?>
<!-- Generator: Adobe Illustrator 24.1.0, SVG Export Plug-In . SVG Version: 6.00 Build 0)  -->
<svg version="1.1" id="Capa_1" xmlns="http://www.w3.org/2000/svg" xmlns:xlink="http://www.w3.org/1999/xlink" x="0px" y="0px"
	 viewBox="0 0 123 162" style="enable-background:new 0 0 123 162;" xml:space="preserve">
<style type="text/css">
	.st0{filter:url(#Adobe_OpacityMaskFilter);}
	.st1{fill-rule:evenodd;clip-rule:evenodd;fill:#FFFFFF;}
	.st2{mask:url(#mask-2_1_);fill-rule:evenodd;clip-rule:evenodd;fill:url(#Fill-3_1_);}
	.st3{filter:url(#Adobe_OpacityMaskFilter_1_);}
	.st4{mask:url(#mask-5_1_);fill-rule:evenodd;clip-rule:evenodd;fill:url(#Fill-8_1_);}
	.st5{filter:url(#Adobe_OpacityMaskFilter_2_);}
	.st6{mask:url(#mask-8_1_);fill-rule:evenodd;clip-rule:evenodd;fill:url(#Fill-13_1_);}
	.st7{filter:url(#Adobe_OpacityMaskFilter_3_);}
	.st8{mask:url(#mask-11_1_);fill-rule:evenodd;clip-rule:evenodd;fill:url(#Fill-18_1_);}
	.st9{filter:url(#Adobe_OpacityMaskFilter_4_);}
	.st10{mask:url(#mask-14_1_);fill-rule:evenodd;clip-rule:evenodd;fill:url(#Fill-23_1_);}
	.st11{filter:url(#Adobe_OpacityMaskFilter_5_);}
	.st12{mask:url(#mask-17_1_);fill-rule:evenodd;clip-rule:evenodd;fill:url(#Fill-26_1_);}
	.st13{filter:url(#Adobe_OpacityMaskFilter_6_);}
	.st14{mask:url(#mask-20_1_);fill-rule:evenodd;clip-rule:evenodd;fill:url(#Fill-29_1_);}
	.st15{filter:url(#Adobe_OpacityMaskFilter_7_);}
	.st16{mask:url(#mask-23_1_);fill-rule:evenodd;clip-rule:evenodd;fill:url(#Fill-32_1_);}
	.st17{filter:url(#Adobe_OpacityMaskFilter_8_);}
	.st18{mask:url(#mask-26_1_);fill-rule:evenodd;clip-rule:evenodd;fill:url(#Fill-35_1_);}
	.st19{filter:url(#Adobe_OpacityMaskFilter_9_);}
	.st20{mask:url(#mask-29_1_);fill-rule:evenodd;clip-rule:evenodd;fill:url(#Fill-38_1_);}
	.st21{filter:url(#Adobe_OpacityMaskFilter_10_);}
	.st22{mask:url(#mask-32_1_);fill-rule:evenodd;clip-rule:evenodd;fill:url(#Fill-41_1_);}
	.st23{filter:url(#Adobe_OpacityMaskFilter_11_);}
	.st24{mask:url(#mask-35_1_);fill-rule:evenodd;clip-rule:evenodd;fill:url(#Fill-44_1_);}
	.st25{filter:url(#Adobe_OpacityMaskFilter_12_);}
	.st26{mask:url(#mask-38_1_);fill-rule:evenodd;clip-rule:evenodd;fill:url(#Fill-49_1_);}
	.st27{filter:url(#Adobe_OpacityMaskFilter_13_);}
	.st28{mask:url(#mask-41_1_);fill-rule:evenodd;clip-rule:evenodd;fill:url(#Fill-54_1_);}
	.st29{filter:url(#Adobe_OpacityMaskFilter_14_);}
	.st30{mask:url(#mask-44_1_);fill-rule:evenodd;clip-rule:evenodd;fill:url(#Fill-59_1_);}
	.st31{filter:url(#Adobe_OpacityMaskFilter_15_);}
	.st32{mask:url(#mask-47_1_);fill-rule:evenodd;clip-rule:evenodd;fill:url(#Fill-64_1_);}
	.st33{filter:url(#Adobe_OpacityMaskFilter_16_);}
	.st34{mask:url(#mask-50_1_);fill-rule:evenodd;clip-rule:evenodd;fill:url(#Fill-69_1_);}
	.st35{filter:url(#Adobe_OpacityMaskFilter_17_);}
	.st36{mask:url(#mask-53_1_);fill-rule:evenodd;clip-rule:evenodd;fill:url(#Fill-74_1_);}
	.st37{filter:url(#Adobe_OpacityMaskFilter_18_);}
	.st38{mask:url(#mask-56_1_);fill-rule:evenodd;clip-rule:evenodd;fill:url(#Fill-79_1_);}
	.st39{filter:url(#Adobe_OpacityMaskFilter_19_);}
	.st40{mask:url(#mask-59_1_);fill-rule:evenodd;clip-rule:evenodd;fill:url(#Fill-84_1_);}
	.st41{filter:url(#Adobe_OpacityMaskFilter_20_);}
	.st42{mask:url(#mask-62_1_);fill-rule:evenodd;clip-rule:evenodd;fill:url(#Fill-89_1_);}
	.st43{filter:url(#Adobe_OpacityMaskFilter_21_);}
	.st44{mask:url(#mask-65_1_);fill-rule:evenodd;clip-rule:evenodd;fill:url(#Fill-94_1_);}
</style>
<desc>Created with Sketch.</desc>
<g id="GIFOS">
	<g id="_x30_0-UI-Kit" transform="translate(-639.000000, -2141.000000)">
		<g id="camara" transform="translate(639.000000, 2141.000000)">
			<g id="Group-97">
				<g id="Group-5" transform="translate(8.328125, 57.055375)">
					<g id="Clip-4">
					</g>
					<defs>
						<filter id="Adobe_OpacityMaskFilter" filterUnits="userSpaceOnUse" x="0.5" y="0.1" width="95" height="48.7">
							<feColorMatrix  type="matrix" values="1 0 0 0 0  0 1 0 0 0  0 0 1 0 0  0 0 0 1 0"/>
						</filter>
					</defs>
					<mask maskUnits="userSpaceOnUse" x="0.5" y="0.1" width="95" height="48.7" id="mask-2_1_">
						<g class="st0">
							<path id="path-1_1_" class="st1" d="M9.7,0.1c-5.1,0-9.3,4.1-9.3,9.2l0,0v30.2c0,5.1,4.2,9.2,9.3,9.2l0,0h76.5
								c5.1,0,9.3-4.1,9.3-9.2l0,0V9.3c0-5.1-4.2-9.2-9.3-9.2l0,0H9.7z M1.8,39.6V9.3c0-4.3,3.5-7.9,7.9-7.9l0,0h76.5
								c4.3,0,7.9,3.5,7.9,7.9l0,0v30.2c0,4.3-3.5,7.9-7.9,7.9l0,0H9.7C5.4,47.4,1.8,43.9,1.8,39.6L1.8,39.6z"/>
						</g>
					</mask>
					
						<linearGradient id="Fill-3_1_" gradientUnits="userSpaceOnUse" x1="-241.8447" y1="437.3621" x2="-240.8448" y2="437.3621" gradientTransform="matrix(95.0386 0 0 -48.73 22985.0684 21337.0859)">
						<stop  offset="0" style="stop-color:#7C72FF"/>
						<stop  offset="1" style="stop-color:#6D64F4"/>
					</linearGradient>
					<path id="Fill-3" class="st2" d="M17.2,0.1v1c0,0.1,0,0.2,0.1,0.3c0.1,0.1,0.1,0.1,0.2,0.1c0,0,0,0,0.1,0
						c1.6-0.3,3.1-0.7,4.5-1.4H17.2z M90.7,1.2C90.7,1.2,90.7,1.2,90.7,1.2c-0.5-0.3-1-0.5-1.5-0.6c-0.5,0.4-1.1,0.7-1.7,1
						c0.6,0.1,1.2,0.3,1.8,0.5c2.8,1.2,4.8,4,4.8,7.2v30.2c0,4.3-3.5,7.9-7.9,7.9H9.7c-4.3,0-7.9-3.5-7.9-7.9V9.3
						c0-2,0.7-3.8,1.9-5.1c0.3-0.4,0.7-0.7,1.1-1C4.4,3,4,2.7,3.5,2.5c-0.3,0.3-0.7,0.7-1,1C1.3,5.1,0.5,7.1,0.5,9.3v30.2
						c0,5.1,4.2,9.2,9.2,9.2h76.5c5.1,0,9.2-4.2,9.2-9.2V9.3C95.5,5.8,93.5,2.8,90.7,1.2z M57.3,1.5c-0.8-0.4-1.5-0.9-2.2-1.4H29
						c-0.5,0.5-1.1,1-1.7,1.4H57.3z M9.7,0.1c-0.1,0-0.2,0-0.2,0c-0.5,0-1.1,0.1-1.6,0.2c1.3,0.5,2.7,1,4.1,1.2c0,0,0,0,0.1,0
						c0.1,0,0.2,0,0.2-0.1c0.1-0.1,0.1-0.2,0.1-0.3v-1H9.7z"/>
				</g>
				<g id="Group-10" transform="translate(48.687500, 0.067233)">
					<g id="Clip-9">
					</g>
					<defs>
						<filter id="Adobe_OpacityMaskFilter_1_" filterUnits="userSpaceOnUse" x="0.3" y="0.3" width="63.6" height="63.6">
							<feColorMatrix  type="matrix" values="1 0 0 0 0  0 1 0 0 0  0 0 1 0 0  0 0 0 1 0"/>
						</filter>
					</defs>
					<mask maskUnits="userSpaceOnUse" x="0.3" y="0.3" width="63.6" height="63.6" id="mask-5_1_">
						<g class="st3">
							<path id="path-4_1_" class="st1" d="M32.1,0.3C14.6,0.3,0.3,14.6,0.3,32.1l0,0c0,17.5,14.3,31.8,31.8,31.8l0,0
								c17.5,0,31.8-14.3,31.8-31.8l0,0C63.9,14.6,49.7,0.3,32.1,0.3z M1.7,32.1c0-16.8,13.6-30.4,30.4-30.4l0,0
								c16.8,0,30.4,13.6,30.4,30.4l0,0c0,16.8-13.6,30.4-30.4,30.4l0,0C15.4,62.5,1.7,48.9,1.7,32.1L1.7,32.1z"/>
						</g>
					</mask>
					
						<linearGradient id="Fill-8_1_" gradientUnits="userSpaceOnUse" x1="-280.9764" y1="495.9773" x2="-279.9763" y2="495.9773" gradientTransform="matrix(63.5955 0 0 -63.5636 17869.1621 31558.1953)">
						<stop  offset="0" style="stop-color:#7C72FF"/>
						<stop  offset="1" style="stop-color:#6D64F4"/>
					</linearGradient>
					<path id="Fill-8" class="st4" d="M54.6,9.7c-5.8-5.8-13.7-9.3-22.5-9.3C14.6,0.3,0.3,14.6,0.3,32.1c0,8.8,3.6,16.7,9.3,22.5
						c0.9,0.9,1.8,1.7,2.8,2.5c0.6,0.5,1.2,0.9,1.9,1.4c5.1,3.4,11.2,5.5,17.8,5.5c6.2,0,11.9-1.8,16.8-4.8c0.5-0.3,0.9-0.6,1.3-0.9
						c0,0,0,0,0,0c1.5-1.1,3-2.3,4.3-3.6c5.8-5.8,9.3-13.7,9.3-22.5C63.9,23.4,60.4,15.4,54.6,9.7z M53.6,53.6
						c-1.5,1.5-3.1,2.8-4.8,3.9c-0.5,0.4-1.1,0.7-1.7,1c-4.4,2.5-9.6,4-15,4c-5.5,0-10.7-1.5-15.2-4.1c-0.8-0.4-1.5-0.9-2.2-1.4
						c-1.5-1-2.9-2.2-4.1-3.5c-5.5-5.5-8.9-13.1-8.9-21.5c0-16.8,13.7-30.4,30.4-30.4c8.4,0,16,3.4,21.5,8.9
						c5.5,5.5,8.9,13.1,8.9,21.5C62.6,40.5,59.1,48.1,53.6,53.6z"/>
				</g>
				<g id="Group-15" transform="translate(0.000000, 17.996087)">
					<g id="Clip-14">
					</g>
					<defs>
						<filter id="Adobe_OpacityMaskFilter_2_" filterUnits="userSpaceOnUse" x="0" y="0.1" width="45.9" height="45.9">
							<feColorMatrix  type="matrix" values="1 0 0 0 0  0 1 0 0 0  0 0 1 0 0  0 0 0 1 0"/>
						</filter>
					</defs>
					<mask maskUnits="userSpaceOnUse" x="0" y="0.1" width="45.9" height="45.9" id="mask-8_1_">
						<g class="st5">
							<path id="path-7_1_" class="st1" d="M0,23C0,35.7,10.3,46,23,46l0,0c12.7,0,23-10.3,23-22.9l0,0c0-12.6-10.3-22.9-23-22.9
								l0,0C10.3,0.1,0,10.4,0,23 M1.4,23C1.4,11.1,11.1,1.5,23,1.5l0,0c11.9,0,21.6,9.7,21.6,21.6l0,0c0,11.9-9.7,21.6-21.6,21.6
								l0,0C11.1,44.6,1.4,34.9,1.4,23"/>
						</g>
					</mask>
					
						<linearGradient id="Fill-13_1_" gradientUnits="userSpaceOnUse" x1="-230.8583" y1="475.9878" x2="-229.8583" y2="475.9878" gradientTransform="matrix(45.9008 0 0 -45.8774 10596.584 21860.1035)">
						<stop  offset="0" style="stop-color:#7C72FF"/>
						<stop  offset="1" style="stop-color:#6D64F4"/>
					</linearGradient>
					<path id="Fill-13" class="st6" d="M39.2,6.8C35,2.7,29.3,0.1,23,0.1c-6.3,0-12.1,2.6-16.2,6.7C2.6,11,0,16.7,0,23
						c0,8.2,4.3,15.5,10.9,19.5c0.4,0.2,0.8,0.5,1.2,0.7C15.3,45,19,46,23,46c5.7,0,10.8-2,14.8-5.5c0.5-0.4,0.9-0.8,1.4-1.3
						c0,0,0.1-0.1,0.1-0.1c4.1-4.1,6.6-9.8,6.6-16.1C45.9,16.7,43.3,11,39.2,6.8z M38.2,38.3c-0.3,0.3-0.6,0.6-0.9,0.9
						c-0.5,0.5-1.1,1-1.7,1.4c-3.5,2.6-7.9,4.1-12.6,4.1c-3.5,0-6.9-0.9-9.8-2.4c-0.4-0.2-0.9-0.5-1.3-0.7c-1.5-0.9-2.9-2-4.1-3.2
						C3.8,34.4,1.4,29,1.4,23C1.4,11.1,11.1,1.5,23,1.5c6,0,11.3,2.4,15.2,6.3c3.9,3.9,6.3,9.3,6.3,15.2S42.1,34.4,38.2,38.3z"/>
				</g>
				<g id="Group-20" transform="translate(74.953125, 26.320198)">
					<g id="Clip-19">
					</g>
					<defs>
						<filter id="Adobe_OpacityMaskFilter_3_" filterUnits="userSpaceOnUse" x="0" y="0" width="11.7" height="11.7">
							<feColorMatrix  type="matrix" values="1 0 0 0 0  0 1 0 0 0  0 0 1 0 0  0 0 0 1 0"/>
						</filter>
					</defs>
					<mask maskUnits="userSpaceOnUse" x="0" y="0" width="11.7" height="11.7" id="mask-11_1_">
						<g class="st7">
							<path id="path-10_1_" class="st1" d="M0,5.9c0,3.2,2.6,5.8,5.8,5.8l0,0c3.2,0,5.8-2.6,5.8-5.8l0,0C11.7,2.6,9.1,0,5.9,0l0,0
								C2.6,0,0,2.6,0,5.9 M0.6,5.9C0.6,3,3,0.6,5.9,0.6l0,0c2.9,0,5.2,2.3,5.2,5.2l0,0c0,2.9-2.3,5.2-5.2,5.2l0,0
								C3,11.1,0.6,8.7,0.6,5.9"/>
						</g>
					</mask>
					
						<linearGradient id="Fill-18_1_" gradientUnits="userSpaceOnUse" x1="-290.729" y1="445.9404" x2="-289.7289" y2="445.9404" gradientTransform="matrix(11.6696 0 0 -11.664 3392.7246 5207.313)">
						<stop  offset="0" style="stop-color:#7C72FF"/>
						<stop  offset="1" style="stop-color:#6D64F4"/>
					</linearGradient>
					<path id="Fill-18" class="st8" d="M10,1.7C8.9,0.7,7.5,0,5.9,0C4.3,0,2.8,0.7,1.7,1.7S0,4.3,0,5.9c0,3.2,2.6,5.8,5.8,5.8
						c1.6,0,3.1-0.7,4.1-1.7c1.1-1.1,1.7-2.5,1.7-4.1C11.7,4.3,11,2.8,10,1.7z M9.6,9.6c-0.9,0.9-2.2,1.5-3.7,1.5s-2.8-0.6-3.7-1.5
						c-1-0.9-1.5-2.3-1.5-3.7C0.6,3,3,0.6,5.9,0.6c1.4,0,2.8,0.6,3.7,1.5c0.9,0.9,1.5,2.2,1.5,3.7S10.5,8.6,9.6,9.6z"/>
				</g>
				<g id="Group-25" transform="translate(39.718750, 104.438775)">
					<g id="Clip-24">
					</g>
					<defs>
						<filter id="Adobe_OpacityMaskFilter_4_" filterUnits="userSpaceOnUse" x="0.6" y="0" width="32" height="8.6">
							<feColorMatrix  type="matrix" values="1 0 0 0 0  0 1 0 0 0  0 0 1 0 0  0 0 0 1 0"/>
						</filter>
					</defs>
					<mask maskUnits="userSpaceOnUse" x="0.6" y="0" width="32" height="8.6" id="mask-14_1_">
						<g class="st9">
							<path id="path-13_1_" class="st1" d="M1.3,0C0.9,0,0.6,0.4,0.6,0.7l0,0V1c0,4.2,3.4,7.7,7.7,7.7l0,0h16.6
								c4.2,0,7.7-3.4,7.7-7.7l0,0V0.7c0-0.4-0.3-0.7-0.7-0.7l0,0H1.3z M2,1.4h29.2c-0.2,3.3-2.9,5.9-6.3,5.9l0,0H8.3
								C5,7.3,2.2,4.7,2,1.4L2,1.4z"/>
						</g>
					</mask>
					
						<linearGradient id="Fill-23_1_" gradientUnits="userSpaceOnUse" x1="-268.3308" y1="357.687" x2="-267.3307" y2="357.687" gradientTransform="matrix(31.9454 0 0 -8.6532 8572.5576 3099.5144)">
						<stop  offset="0" style="stop-color:#7C72FF"/>
						<stop  offset="1" style="stop-color:#6D64F4"/>
					</linearGradient>
					<path id="Fill-23" class="st10" d="M31.9,0H1.3C0.9,0,0.6,0.4,0.6,0.7V1c0,0.1,0,0.3,0,0.4c0.2,4,3.6,7.3,7.7,7.3h16.6
						c4.1,0,7.5-3.2,7.7-7.3c0-0.1,0-0.3,0-0.4V0.7C32.6,0.4,32.3,0,31.9,0z M24.9,7.3H8.3C5,7.3,2.2,4.7,2,1.4h29.2
						C31,4.7,28.2,7.3,24.9,7.3z"/>
				</g>
				<g id="Group-28" transform="translate(55.093750, 111.482253)">
					<g id="Clip-27">
					</g>
					<defs>
						<filter id="Adobe_OpacityMaskFilter_5_" filterUnits="userSpaceOnUse" x="0.5" y="0.3" width="1.4" height="48.9">
							<feColorMatrix  type="matrix" values="1 0 0 0 0  0 1 0 0 0  0 0 1 0 0  0 0 0 1 0"/>
						</filter>
					</defs>
					<mask maskUnits="userSpaceOnUse" x="0.5" y="0.3" width="1.4" height="48.9" id="mask-17_1_">
						<g class="st11">
							<path id="path-16_1_" class="st1" d="M0.5,1v47.5c0,0.4,0.3,0.7,0.7,0.7l0,0c0.4,0,0.7-0.3,0.7-0.7l0,0V1
								c0-0.4-0.3-0.7-0.7-0.7l0,0C0.8,0.3,0.5,0.6,0.5,1"/>
						</g>
					</mask>
					
						<linearGradient id="Fill-26_1_" gradientUnits="userSpaceOnUse" x1="-120.217" y1="382.9559" x2="-119.217" y2="382.9559" gradientTransform="matrix(1.3812 0 0 -48.8753 166.572 18741.8066)">
						<stop  offset="0" style="stop-color:#7C72FF"/>
						<stop  offset="1" style="stop-color:#6D64F4"/>
					</linearGradient>
					<path id="Fill-26" class="st12" d="M0.5,1v47.5c0,0.4,0.3,0.7,0.7,0.7l0,0c0.4,0,0.7-0.3,0.7-0.7l0,0V1c0-0.4-0.3-0.7-0.7-0.7
						l0,0C0.8,0.3,0.5,0.6,0.5,1"/>
				</g>
				<g id="Group-31" transform="translate(7.046875, 111.482253)">
					<g id="Clip-30">
					</g>
					<defs>
						<filter id="Adobe_OpacityMaskFilter_6_" filterUnits="userSpaceOnUse" x="0.5" y="0.3" width="49.5" height="49.4">
							<feColorMatrix  type="matrix" values="1 0 0 0 0  0 1 0 0 0  0 0 1 0 0  0 0 0 1 0"/>
						</filter>
					</defs>
					<mask maskUnits="userSpaceOnUse" x="0.5" y="0.3" width="49.5" height="49.4" id="mask-20_1_">
						<g class="st13">
							<path id="path-19_1_" class="st1" d="M48.8,0.5L0.7,48.5c-0.3,0.3-0.3,0.7,0,1l0,0c0.1,0.1,0.3,0.2,0.5,0.2l0,0
								c0.2,0,0.4-0.1,0.5-0.2l0,0L49.8,1.4c0.3-0.3,0.3-0.7,0-1l0,0c-0.1-0.1-0.3-0.2-0.5-0.2l0,0C49.1,0.3,48.9,0.3,48.8,0.5"/>
						</g>
					</mask>
					
						<linearGradient id="Fill-29_1_" gradientUnits="userSpaceOnUse" x1="-238.2749" y1="383.0348" x2="-237.2749" y2="383.0348" gradientTransform="matrix(49.4577 0 0 -49.4363 11785.0244 18960.793)">
						<stop  offset="0" style="stop-color:#7C72FF"/>
						<stop  offset="1" style="stop-color:#6D64F4"/>
					</linearGradient>
					<path id="Fill-29" class="st14" d="M48.8,0.5L0.7,48.5c-0.3,0.3-0.3,0.7,0,1l0,0c0.1,0.1,0.3,0.2,0.5,0.2l0,0
						c0.2,0,0.4-0.1,0.5-0.2l0,0L49.8,1.4c0.3-0.3,0.3-0.7,0-1l0,0c-0.1-0.1-0.3-0.2-0.5-0.2l0,0C49.1,0.3,48.9,0.3,48.8,0.5"/>
				</g>
				<g id="Group-34" transform="translate(55.093750, 111.482253)">
					<g id="Clip-33">
					</g>
					<defs>
						<filter id="Adobe_OpacityMaskFilter_7_" filterUnits="userSpaceOnUse" x="0.5" y="0.3" width="49.5" height="49.4">
							<feColorMatrix  type="matrix" values="1 0 0 0 0  0 1 0 0 0  0 0 1 0 0  0 0 0 1 0"/>
						</filter>
					</defs>
					<mask maskUnits="userSpaceOnUse" x="0.5" y="0.3" width="49.5" height="49.4" id="mask-23_1_">
						<g class="st15">
							<path id="path-22_1_" class="st1" d="M0.7,0.5c-0.3,0.3-0.3,0.7,0,1l0,0l48.1,48.1c0.1,0.1,0.3,0.2,0.5,0.2l0,0
								c0.2,0,0.4-0.1,0.5-0.2l0,0c0.3-0.3,0.3-0.7,0-1l0,0L1.7,0.5C1.6,0.3,1.4,0.3,1.2,0.3l0,0C1,0.3,0.9,0.3,0.7,0.5"/>
						</g>
					</mask>
					
						<linearGradient id="Fill-32_1_" gradientUnits="userSpaceOnUse" x1="-286.3217" y1="383.0348" x2="-285.3217" y2="383.0348" gradientTransform="matrix(49.4579 0 0 -49.4363 14161.3887 18960.793)">
						<stop  offset="0" style="stop-color:#7C72FF"/>
						<stop  offset="1" style="stop-color:#6D64F4"/>
					</linearGradient>
					<path id="Fill-32" class="st16" d="M0.7,0.5c-0.3,0.3-0.3,0.7,0,1l0,0l48.1,48.1c0.1,0.1,0.3,0.2,0.5,0.2l0,0
						c0.2,0,0.4-0.1,0.5-0.2l0,0c0.3-0.3,0.3-0.7,0-1l0,0L1.7,0.5C1.6,0.3,1.4,0.3,1.2,0.3l0,0C1,0.3,0.9,0.3,0.7,0.5"/>
				</g>
				<g id="Group-37" transform="translate(17.296875, 91.632451)">
					<g id="Clip-36">
					</g>
					<defs>
						<filter id="Adobe_OpacityMaskFilter_8_" filterUnits="userSpaceOnUse" x="0.3" y="0.2" width="26.8" height="6.5">
							<feColorMatrix  type="matrix" values="1 0 0 0 0  0 1 0 0 0  0 0 1 0 0  0 0 0 1 0"/>
						</filter>
					</defs>
					<mask maskUnits="userSpaceOnUse" x="0.3" y="0.2" width="26.8" height="6.5" id="mask-26_1_">
						<g class="st17">
							<path id="path-25_1_" class="st1" d="M1,0.2c-0.4,0-0.7,0.3-0.7,0.7l0,0V6c0,0.4,0.3,0.7,0.7,0.7l0,0h25.5
								c0.4,0,0.7-0.3,0.7-0.7l0,0V0.8c0-0.4-0.3-0.7-0.7-0.7l0,0H1z M1.7,5.3h24.1V1.5H1.7V5.3z"/>
						</g>
					</mask>
					
						<linearGradient id="Fill-35_1_" gradientUnits="userSpaceOnUse" x1="-244.5077" y1="357.5879" x2="-243.5078" y2="357.5879" gradientTransform="matrix(26.8524 0 0 -6.5127 6565.9097 2332.2585)">
						<stop  offset="0" style="stop-color:#7C72FF"/>
						<stop  offset="1" style="stop-color:#6D64F4"/>
					</linearGradient>
					<path id="Fill-35" class="st18" d="M26.4,0.2H1c-0.4,0-0.7,0.3-0.7,0.7V6c0,0.4,0.3,0.7,0.7,0.7h25.5c0.4,0,0.7-0.3,0.7-0.7
						V0.8C27.1,0.5,26.8,0.2,26.4,0.2z M25.8,5.3H1.7V1.5h24.1V5.3z"/>
				</g>
				<g id="Group-40" transform="translate(46.765625, 91.632451)">
					<g id="Clip-39">
					</g>
					<defs>
						<filter id="Adobe_OpacityMaskFilter_9_" filterUnits="userSpaceOnUse" x="0.6" y="0.2" width="6.6" height="6.5">
							<feColorMatrix  type="matrix" values="1 0 0 0 0  0 1 0 0 0  0 0 1 0 0  0 0 0 1 0"/>
						</filter>
					</defs>
					<mask maskUnits="userSpaceOnUse" x="0.6" y="0.2" width="6.6" height="6.5" id="mask-29_1_">
						<g class="st19">
							<path id="path-28_1_" class="st1" d="M1.3,0.2c-0.4,0-0.7,0.3-0.7,0.7l0,0V6c0,0.4,0.3,0.7,0.7,0.7l0,0h5.2
								c0.4,0,0.7-0.3,0.7-0.7l0,0V0.8c0-0.4-0.3-0.7-0.7-0.7l0,0H1.3z M1.9,5.3h3.9V1.5H1.9V5.3z"/>
						</g>
					</mask>
					
						<linearGradient id="Fill-38_1_" gradientUnits="userSpaceOnUse" x1="-247.1467" y1="357.5879" x2="-246.1461" y2="357.5879" gradientTransform="matrix(6.626 0 0 -6.5127 1638.1548 2332.2585)">
						<stop  offset="0" style="stop-color:#7C72FF"/>
						<stop  offset="1" style="stop-color:#6D64F4"/>
					</linearGradient>
					<path id="Fill-38" class="st20" d="M6.5,0.2H1.3c-0.4,0-0.7,0.3-0.7,0.7V6c0,0.4,0.3,0.7,0.7,0.7h5.2c0.4,0,0.7-0.3,0.7-0.7
						V0.8C7.2,0.5,6.9,0.2,6.5,0.2z M5.8,5.3H1.9V1.5h3.9V5.3z"/>
				</g>
				<g id="Group-43" transform="translate(17.296875, 83.948656)">
					<g id="Clip-42">
					</g>
					<defs>
						<filter id="Adobe_OpacityMaskFilter_10_" filterUnits="userSpaceOnUse" x="0.3" y="0.1" width="26.9" height="1.4">
							<feColorMatrix  type="matrix" values="1 0 0 0 0  0 1 0 0 0  0 0 1 0 0  0 0 0 1 0"/>
						</filter>
					</defs>
					<mask maskUnits="userSpaceOnUse" x="0.3" y="0.1" width="26.9" height="1.4" id="mask-32_1_">
						<g class="st21">
							<path id="path-31_1_" class="st1" d="M1,0.1c-0.4,0-0.7,0.3-0.7,0.7l0,0c0,0.4,0.3,0.7,0.7,0.7l0,0h25.5
								c0.4,0,0.7-0.3,0.7-0.7l0,0c0-0.4-0.3-0.7-0.7-0.7l0,0H1z"/>
						</g>
					</mask>
					
						<linearGradient id="Fill-41_1_" gradientUnits="userSpaceOnUse" x1="-244.5076" y1="171.3291" x2="-243.5076" y2="171.3291" gradientTransform="matrix(26.8524 0 0 -1.3805 6565.9097 237.3514)">
						<stop  offset="0" style="stop-color:#7C72FF"/>
						<stop  offset="1" style="stop-color:#6D64F4"/>
					</linearGradient>
					<path id="Fill-41" class="st22" d="M1,0.1c-0.4,0-0.7,0.3-0.7,0.7l0,0c0,0.4,0.3,0.7,0.7,0.7l0,0h25.5c0.4,0,0.7-0.3,0.7-0.7
						l0,0c0-0.4-0.3-0.7-0.7-0.7l0,0H1z"/>
				</g>
				<g id="Group-46" transform="translate(17.296875, 76.905178)">
					<g id="Clip-45">
					</g>
					<defs>
						<filter id="Adobe_OpacityMaskFilter_11_" filterUnits="userSpaceOnUse" x="0.3" y="0.2" width="36.4" height="1.4">
							<feColorMatrix  type="matrix" values="1 0 0 0 0  0 1 0 0 0  0 0 1 0 0  0 0 0 1 0"/>
						</filter>
					</defs>
					<mask maskUnits="userSpaceOnUse" x="0.3" y="0.2" width="36.4" height="1.4" id="mask-35_1_">
						<g class="st23">
							<path id="path-34_1_" class="st1" d="M1,0.2c-0.4,0-0.7,0.3-0.7,0.7l0,0c0,0.4,0.3,0.7,0.7,0.7l0,0h35c0.4,0,0.7-0.3,0.7-0.7
								l0,0c0-0.4-0.3-0.7-0.7-0.7l0,0H1z"/>
						</g>
					</mask>
					
						<linearGradient id="Fill-44_1_" gradientUnits="userSpaceOnUse" x1="-246.809" y1="178.4867" x2="-245.809" y2="178.4867" gradientTransform="matrix(36.3773 0 0 -1.3812 8978.5156 247.4016)">
						<stop  offset="0" style="stop-color:#7C72FF"/>
						<stop  offset="1" style="stop-color:#6D64F4"/>
					</linearGradient>
					<path id="Fill-44" class="st24" d="M1,0.2c-0.4,0-0.7,0.3-0.7,0.7l0,0c0,0.4,0.3,0.7,0.7,0.7l0,0h35c0.4,0,0.7-0.3,0.7-0.7l0,0
						c0-0.4-0.3-0.7-0.7-0.7l0,0H1z"/>
				</g>
				<g id="Group-51" transform="translate(105.062500, 66.019802)">
					<g id="Clip-50">
					</g>
					<defs>
						<filter id="Adobe_OpacityMaskFilter_12_" filterUnits="userSpaceOnUse" x="0.1" y="-0.1" width="12.9" height="31.1">
							<feColorMatrix  type="matrix" values="1 0 0 0 0  0 1 0 0 0  0 0 1 0 0  0 0 0 1 0"/>
						</filter>
					</defs>
					<mask maskUnits="userSpaceOnUse" x="0.1" y="-0.1" width="12.9" height="31.1" id="mask-38_1_">
						<g class="st25">
							<path id="path-37_1_" class="st1" d="M12.1,0L0.5,6.7C0.3,6.8,0.1,7,0.1,7.3l0,0v16.4c0,0.2,0.1,0.5,0.3,0.6l0,0l11.6,6.7
								c0.1,0.1,0.2,0.1,0.3,0.1l0,0c0.1,0,0.2,0,0.3-0.1l0,0c0.2-0.1,0.3-0.4,0.3-0.6l0,0V0.6c0-0.2-0.1-0.5-0.3-0.6l0,0
								c-0.1-0.1-0.2-0.1-0.3-0.1l0,0C12.3-0.1,12.2,0,12.1,0L12.1,0z M1.5,23.3V7.7l10.2-5.9v27.3L1.5,23.3z"/>
						</g>
					</mask>
					
						<linearGradient id="Fill-49_1_" gradientUnits="userSpaceOnUse" x1="-322.8456" y1="424.4486" x2="-321.8461" y2="424.4486" gradientTransform="matrix(12.956 0 0 -31.1098 4182.9258 13219.9697)">
						<stop  offset="0" style="stop-color:#7C72FF"/>
						<stop  offset="1" style="stop-color:#6D64F4"/>
					</linearGradient>
					<path id="Fill-49" class="st26" d="M12.7,0c-0.1-0.1-0.2-0.1-0.4-0.1c-0.1,0-0.2,0-0.3,0.1l-0.4,0.2L0.5,6.7
						C0.3,6.8,0.1,7,0.1,7.3v16.4c0,0.2,0.1,0.5,0.3,0.6l11.2,6.5l0.4,0.2c0.1,0.1,0.2,0.1,0.3,0.1c0.1,0,0.2,0,0.4-0.1
						c0.2-0.1,0.3-0.3,0.3-0.6V0.6C13.1,0.4,13,0.1,12.7,0z M11.7,29.1L1.5,23.3V7.7l10.2-5.9V29.1z"/>
				</g>
				<g id="Group-56" transform="translate(116.593750, 60.897273)">
					<g id="Clip-55">
					</g>
					<defs>
						<filter id="Adobe_OpacityMaskFilter_13_" filterUnits="userSpaceOnUse" x="0.2" y="0.4" width="6.2" height="40.5">
							<feColorMatrix  type="matrix" values="1 0 0 0 0  0 1 0 0 0  0 0 1 0 0  0 0 0 1 0"/>
						</filter>
					</defs>
					<mask maskUnits="userSpaceOnUse" x="0.2" y="0.4" width="6.2" height="40.5" id="mask-41_1_">
						<g class="st27">
							<path id="path-40_1_" class="st1" d="M5.4,0.4L0.5,3.2C0.3,3.4,0.2,3.6,0.2,3.8l0,0v33.5c0,0.2,0.1,0.5,0.3,0.6l0,0l4.8,2.8
								c0.1,0.1,0.2,0.1,0.3,0.1l0,0c0.1,0,0.2,0,0.3-0.1l0,0c0.2-0.1,0.3-0.4,0.3-0.6l0,0V1c0-0.2-0.1-0.5-0.3-0.6l0,0
								C5.9,0.4,5.8,0.4,5.7,0.4l0,0C5.6,0.4,5.5,0.4,5.4,0.4L5.4,0.4z M1.6,37V4.2l3.5-2V39L1.6,37z"/>
						</g>
					</mask>
					
						<linearGradient id="Fill-54_1_" gradientUnits="userSpaceOnUse" x1="-314.6251" y1="432.1009" x2="-313.6244" y2="432.1009" gradientTransform="matrix(6.216 0 0 -40.4885 1955.8807 17515.7051)">
						<stop  offset="0" style="stop-color:#7C72FF"/>
						<stop  offset="1" style="stop-color:#6D64F4"/>
					</linearGradient>
					<path id="Fill-54" class="st28" d="M6,0.4C5.9,0.4,5.8,0.4,5.7,0.4c-0.1,0-0.2,0-0.3,0.1L0.5,3.2C0.3,3.4,0.2,3.6,0.2,3.8v33.5
						c0,0.2,0.1,0.5,0.4,0.6l4.8,2.8c0.1,0.1,0.2,0.1,0.3,0.1c0.1,0,0.2,0,0.3-0.1c0.2-0.1,0.3-0.3,0.3-0.6V1C6.4,0.8,6.3,0.6,6,0.4
						z M5,39l-3.5-2V4.2l3.5-2V39z"/>
				</g>
				<g id="Group-61" transform="translate(83.921875, 7.751028)">
					<g id="Clip-60">
					</g>
					<defs>
						<filter id="Adobe_OpacityMaskFilter_14_" filterUnits="userSpaceOnUse" x="0.3" y="-0.1" width="21.2" height="21.2">
							<feColorMatrix  type="matrix" values="1 0 0 0 0  0 1 0 0 0  0 0 1 0 0  0 0 0 1 0"/>
						</filter>
					</defs>
					<mask maskUnits="userSpaceOnUse" x="0.3" y="-0.1" width="21.2" height="21.2" id="mask-44_1_">
						<g class="st29">
							<path id="path-43_1_" class="st1" d="M0.5,0C0.4,0.1,0.3,0.2,0.3,0.4l0,0v15.2c0,0.2,0.1,0.4,0.3,0.5l0,0
								c2.1,0.9,3.7,2.5,4.6,4.6l0,0C5.3,20.9,5.5,21,5.7,21l0,0h15.2c0.2,0,0.3-0.1,0.4-0.2l0,0c0.1-0.1,0.1-0.3,0.1-0.4l0,0
								C19.8,9.8,11.5,1.6,0.9-0.1l0,0c0,0-0.1,0-0.1,0l0,0C0.7-0.1,0.6-0.1,0.5,0 M1.3,15.3V1c9.7,1.8,17.2,9.3,19,19l0,0H6
								C5,17.9,3.4,16.3,1.3,15.3"/>
						</g>
					</mask>
					
						<linearGradient id="Fill-59_1_" gradientUnits="userSpaceOnUse" x1="-308.7652" y1="477.5692" x2="-307.7649" y2="477.5692" gradientTransform="matrix(21.1545 0 0 -21.1432 6532.0732 10107.8135)">
						<stop  offset="0" style="stop-color:#7C72FF"/>
						<stop  offset="1" style="stop-color:#6D64F4"/>
					</linearGradient>
					<path id="Fill-59" class="st30" d="M21.5,20.4c-0.9-5.3-3.3-10-6.9-13.6C10.9,3.2,6.2,0.7,0.9-0.1c0,0-0.1,0-0.1,0
						c-0.1,0-0.2,0-0.3,0.1C0.4,0.1,0.3,0.2,0.3,0.4v15.2c0,0.2,0.1,0.4,0.3,0.5c2.1,0.9,3.7,2.5,4.6,4.6C5.3,20.9,5.5,21,5.7,21
						h15.2c0.1,0,0.3-0.1,0.4-0.2C21.4,20.7,21.5,20.6,21.5,20.4C21.5,20.5,21.5,20.4,21.5,20.4z M6,20c-1-2.1-2.6-3.7-4.7-4.7V1
						c9.7,1.8,17.2,9.3,19,19H6z"/>
				</g>
				<g id="Group-66" transform="translate(55.734375, 7.751028)">
					<g id="Clip-65">
					</g>
					<defs>
						<filter id="Adobe_OpacityMaskFilter_15_" filterUnits="userSpaceOnUse" x="0.5" y="-0.1" width="21.2" height="21.2">
							<feColorMatrix  type="matrix" values="1 0 0 0 0  0 1 0 0 0  0 0 1 0 0  0 0 0 1 0"/>
						</filter>
					</defs>
					<mask maskUnits="userSpaceOnUse" x="0.5" y="-0.1" width="21.2" height="21.2" id="mask-47_1_">
						<g class="st31">
							<path id="path-46_1_" class="st1" d="M21.1-0.1C10.5,1.6,2.2,9.8,0.5,20.4l0,0c0,0.1,0,0.3,0.1,0.4l0,0C0.7,21,0.9,21,1,21
								l0,0h15.2c0.2,0,0.4-0.1,0.5-0.3l0,0c0.9-2.1,2.6-3.7,4.6-4.6l0,0c0.2-0.1,0.3-0.3,0.3-0.5l0,0V0.4c0-0.2-0.1-0.3-0.2-0.4
								l0,0C21.4-0.1,21.3-0.1,21.1-0.1L21.1-0.1C21.1-0.1,21.1-0.1,21.1-0.1 M20.6,1v14.3c-2.1,1-3.7,2.6-4.7,4.7l0,0H1.7
								C3.4,10.3,11,2.8,20.6,1"/>
						</g>
					</mask>
					
						<linearGradient id="Fill-64_1_" gradientUnits="userSpaceOnUse" x1="-280.5784" y1="477.5692" x2="-279.5782" y2="477.5692" gradientTransform="matrix(21.1553 0 0 -21.1432 5936.2495 10107.8135)">
						<stop  offset="0" style="stop-color:#7C72FF"/>
						<stop  offset="1" style="stop-color:#6D64F4"/>
					</linearGradient>
					<path id="Fill-64" class="st32" d="M21.5,0c-0.1-0.1-0.2-0.1-0.3-0.1c0,0-0.1,0-0.1,0C10.5,1.6,2.2,9.8,0.5,20.4
						c0,0,0,0.1,0,0.1c0,0.1,0,0.2,0.1,0.4C0.7,21,0.9,21,1,21h15.2c0.2,0,0.4-0.1,0.5-0.3c0.9-2.1,2.5-3.7,4.6-4.6
						c0.2-0.1,0.3-0.3,0.3-0.5V0.4C21.7,0.2,21.6,0.1,21.5,0z M20.6,15.3c-2.1,1-3.7,2.6-4.7,4.7H1.7c1.8-9.7,9.3-17.2,19-19V15.3z"
						/>
				</g>
				<g id="Group-71" transform="translate(55.734375, 35.284625)">
					<g id="Clip-70">
					</g>
					<defs>
						<filter id="Adobe_OpacityMaskFilter_16_" filterUnits="userSpaceOnUse" x="0.5" y="0.3" width="21.2" height="21.1">
							<feColorMatrix  type="matrix" values="1 0 0 0 0  0 1 0 0 0  0 0 1 0 0  0 0 0 1 0"/>
						</filter>
					</defs>
					<mask maskUnits="userSpaceOnUse" x="0.5" y="0.3" width="21.2" height="21.1" id="mask-50_1_">
						<g class="st33">
							<path id="path-49_1_" class="st1" d="M1,0.3c-0.2,0-0.3,0.1-0.4,0.2l0,0C0.5,0.6,0.5,0.8,0.5,0.9l0,0
								c1.7,10.6,10,18.8,20.6,20.5l0,0c0,0,0.1,0,0.1,0l0,0c0.1,0,0.2,0,0.3-0.1l0,0c0.1-0.1,0.2-0.2,0.2-0.4l0,0V5.7
								c0-0.2-0.1-0.4-0.3-0.5l0,0c-2.1-0.9-3.7-2.5-4.6-4.6l0,0c-0.1-0.2-0.3-0.3-0.5-0.3l0,0H1z M1.7,1.3H16
								c1,2.1,2.6,3.7,4.7,4.7l0,0v14.3C11,18.5,3.4,11,1.7,1.3L1.7,1.3z"/>
						</g>
					</mask>
					
						<linearGradient id="Fill-69_1_" gradientUnits="userSpaceOnUse" x1="-280.5784" y1="450.037" x2="-279.5782" y2="450.037" gradientTransform="matrix(21.1553 0 0 -21.1452 5936.2495 9526.9854)">
						<stop  offset="0" style="stop-color:#7C72FF"/>
						<stop  offset="1" style="stop-color:#6D64F4"/>
					</linearGradient>
					<path id="Fill-69" class="st34" d="M21.4,5.2c-2.1-0.9-3.7-2.5-4.6-4.6c-0.1-0.2-0.3-0.3-0.5-0.3H1c-0.1,0-0.3,0.1-0.4,0.2
						C0.6,0.6,0.5,0.7,0.5,0.8c0,0,0,0,0,0.1c0.8,5.3,3.3,10,6.9,13.6c3.6,3.6,8.3,6.1,13.6,6.9c0,0,0.1,0,0.1,0
						c0.1,0,0.2,0,0.3-0.1c0.1-0.1,0.2-0.2,0.2-0.4V5.7C21.7,5.5,21.6,5.3,21.4,5.2z M20.6,20.3C11,18.5,3.4,11,1.7,1.3H16
						c1,2,2.6,3.7,4.7,4.7V20.3z"/>
				</g>
				<g id="Group-76" transform="translate(83.921875, 35.284625)">
					<g id="Clip-75">
					</g>
					<defs>
						<filter id="Adobe_OpacityMaskFilter_17_" filterUnits="userSpaceOnUse" x="0.3" y="0.3" width="21.2" height="21.1">
							<feColorMatrix  type="matrix" values="1 0 0 0 0  0 1 0 0 0  0 0 1 0 0  0 0 0 1 0"/>
						</filter>
					</defs>
					<mask maskUnits="userSpaceOnUse" x="0.3" y="0.3" width="21.2" height="21.1" id="mask-53_1_">
						<g class="st35">
							<path id="path-52_1_" class="st1" d="M5.7,0.3c-0.2,0-0.4,0.1-0.5,0.3l0,0C4.3,2.7,2.7,4.3,0.6,5.2l0,0
								C0.4,5.3,0.3,5.5,0.3,5.7l0,0v15.2c0,0.2,0.1,0.3,0.2,0.4l0,0c0.1,0.1,0.2,0.1,0.3,0.1l0,0c0,0,0.1,0,0.1,0l0,0
								c10.6-1.7,18.9-9.9,20.5-20.5l0,0c0-0.1,0-0.3-0.1-0.4l0,0c-0.1-0.1-0.2-0.2-0.4-0.2l0,0H5.7z M1.3,6C3.4,5,5,3.4,6,1.3l0,0
								h14.3c-1.8,9.7-9.3,17.2-19,19l0,0V6z"/>
						</g>
					</mask>
					
						<linearGradient id="Fill-74_1_" gradientUnits="userSpaceOnUse" x1="-308.7652" y1="450.037" x2="-307.7649" y2="450.037" gradientTransform="matrix(21.1545 0 0 -21.1452 6532.0732 9526.9854)">
						<stop  offset="0" style="stop-color:#7C72FF"/>
						<stop  offset="1" style="stop-color:#6D64F4"/>
					</linearGradient>
					<path id="Fill-74" class="st36" d="M21.3,0.5c-0.1-0.1-0.2-0.2-0.4-0.2H5.7c-0.2,0-0.4,0.1-0.5,0.3C4.3,2.7,2.7,4.3,0.6,5.2
						C0.4,5.3,0.3,5.5,0.3,5.7v15.2c0,0.1,0.1,0.3,0.2,0.4c0.1,0.1,0.2,0.1,0.3,0.1c0,0,0,0,0.1,0c5.3-0.9,10-3.3,13.6-6.9
						c3.6-3.6,6.1-8.3,6.9-13.6c0,0,0,0,0-0.1C21.5,0.7,21.4,0.6,21.3,0.5z M1.3,20.3V6C3.4,5,5,3.4,6,1.3h14.3
						C18.5,11,11,18.5,1.3,20.3z"/>
				</g>
				<g id="Group-81" transform="translate(24.984375, 23.758933)">
					<g id="Clip-80">
					</g>
					<defs>
						<filter id="Adobe_OpacityMaskFilter_18_" filterUnits="userSpaceOnUse" x="0.6" y="0" width="15" height="14.9">
							<feColorMatrix  type="matrix" values="1 0 0 0 0  0 1 0 0 0  0 0 1 0 0  0 0 0 1 0"/>
						</filter>
					</defs>
					<mask maskUnits="userSpaceOnUse" x="0.6" y="0" width="15" height="14.9" id="mask-56_1_">
						<g class="st37">
							<path id="path-55_1_" class="st1" d="M0.7,0.1C0.6,0.2,0.6,0.3,0.6,0.4l0,0v10.8c0,0.1,0.1,0.3,0.2,0.3l0,0
								c1.5,0.6,2.6,1.8,3.3,3.3l0,0C4.1,14.9,4.3,15,4.4,15l0,0h10.8c0.1,0,0.2,0,0.3-0.1l0,0c0.1-0.1,0.1-0.2,0.1-0.3l0,0
								C14.3,7.1,8.5,1.2,1,0l0,0C1,0,1,0,1,0l0,0C0.9,0,0.8,0.1,0.7,0.1 M1.3,10.9V0.8c6.8,1.3,12.2,6.6,13.4,13.4l0,0H4.6
								C3.9,12.8,2.8,11.6,1.3,10.9"/>
						</g>
					</mask>
					
						<linearGradient id="Fill-79_1_" gradientUnits="userSpaceOnUse" x1="-245.2038" y1="454.9016" x2="-244.2035" y2="454.9016" gradientTransform="matrix(14.9556 0 0 -14.9482 3667.7642 6807.4565)">
						<stop  offset="0" style="stop-color:#7C72FF"/>
						<stop  offset="1" style="stop-color:#6D64F4"/>
					</linearGradient>
					<path id="Fill-79" class="st38" d="M15.5,14.6c-0.6-3.7-2.3-7.1-4.9-9.6C8.1,2.4,4.8,0.6,1,0C1,0,1,0,1,0c-0.1,0-0.2,0-0.2,0.1
						C0.6,0.2,0.6,0.3,0.6,0.4v10.8c0,0.1,0.1,0.3,0.2,0.3c1.5,0.7,2.6,1.8,3.3,3.3C4.1,14.9,4.3,15,4.4,15h10.8
						c0.1,0,0.2,0,0.3-0.1C15.5,14.8,15.5,14.7,15.5,14.6C15.5,14.6,15.5,14.6,15.5,14.6z M4.6,14.2c-0.7-1.5-1.9-2.6-3.3-3.3V0.8
						c6.8,1.3,12.2,6.6,13.4,13.4H4.6z"/>
				</g>
				<g id="Group-86" transform="translate(5.765625, 23.758933)">
					<g id="Clip-85">
					</g>
					<defs>
						<filter id="Adobe_OpacityMaskFilter_19_" filterUnits="userSpaceOnUse" x="0" y="0" width="15" height="14.9">
							<feColorMatrix  type="matrix" values="1 0 0 0 0  0 1 0 0 0  0 0 1 0 0  0 0 0 1 0"/>
						</filter>
					</defs>
					<mask maskUnits="userSpaceOnUse" x="0" y="0" width="15" height="14.9" id="mask-59_1_">
						<g class="st39">
							<path id="path-58_1_" class="st1" d="M14.6,0C7.1,1.2,1.2,7.1,0,14.6l0,0c0,0.1,0,0.2,0.1,0.3l0,0C0.2,14.9,0.3,15,0.4,15
								l0,0h10.8c0.1,0,0.3-0.1,0.3-0.2l0,0c0.6-1.5,1.8-2.6,3.3-3.3l0,0c0.1-0.1,0.2-0.2,0.2-0.3l0,0V0.4c0-0.1,0-0.2-0.1-0.3l0,0
								C14.8,0.1,14.7,0,14.6,0L14.6,0C14.6,0,14.6,0,14.6,0 M14.3,0.8v10.1c-1.5,0.7-2.6,1.9-3.3,3.3l0,0H0.8
								C2.1,7.4,7.4,2.1,14.3,0.8"/>
						</g>
					</mask>
					
						<linearGradient id="Fill-84_1_" gradientUnits="userSpaceOnUse" x1="-225.9867" y1="454.9016" x2="-224.9865" y2="454.9016" gradientTransform="matrix(14.9571 0 0 -14.9482 3380.1274 6807.4565)">
						<stop  offset="0" style="stop-color:#7C72FF"/>
						<stop  offset="1" style="stop-color:#6D64F4"/>
					</linearGradient>
					<path id="Fill-84" class="st40" d="M14.9,0.1C14.8,0.1,14.7,0,14.6,0c0,0,0,0-0.1,0C7.1,1.2,1.2,7.1,0,14.6c0,0,0,0,0,0.1
						c0,0.1,0,0.2,0.1,0.2C0.2,14.9,0.3,15,0.4,15h10.8c0.1,0,0.3-0.1,0.3-0.2c0.7-1.5,1.8-2.6,3.3-3.3c0.1-0.1,0.2-0.2,0.2-0.3V0.4
						C15,0.3,14.9,0.2,14.9,0.1z M14.3,10.9c-1.4,0.7-2.6,1.9-3.3,3.3H0.8C2.1,7.4,7.4,2.1,14.3,0.8V10.9z"/>
				</g>
				<g id="Group-91" transform="translate(5.765625, 43.608735)">
					<g id="Clip-90">
					</g>
					<defs>
						<filter id="Adobe_OpacityMaskFilter_20_" filterUnits="userSpaceOnUse" x="0" y="0" width="15" height="15">
							<feColorMatrix  type="matrix" values="1 0 0 0 0  0 1 0 0 0  0 0 1 0 0  0 0 0 1 0"/>
						</filter>
					</defs>
					<mask maskUnits="userSpaceOnUse" x="0" y="0" width="15" height="15" id="mask-62_1_">
						<g class="st41">
							<path id="path-61_1_" class="st1" d="M0.4-0.1c-0.1,0-0.2,0-0.3,0.1l0,0C0,0.2,0,0.3,0,0.4l0,0c1.2,7.5,7,13.3,14.5,14.5l0,0
								c0,0,0,0,0.1,0l0,0c0.1,0,0.2,0,0.2-0.1l0,0c0.1-0.1,0.1-0.2,0.1-0.3l0,0V3.8c0-0.1-0.1-0.3-0.2-0.3l0,0
								c-1.5-0.6-2.6-1.8-3.3-3.3l0,0c-0.1-0.1-0.2-0.2-0.3-0.2l0,0H0.4z M0.8,0.7h10.1c0.7,1.5,1.9,2.6,3.3,3.3l0,0v10.1
								C7.4,12.8,2.1,7.5,0.8,0.7L0.8,0.7z"/>
						</g>
					</mask>
					
						<linearGradient id="Fill-89_1_" gradientUnits="userSpaceOnUse" x1="-225.9867" y1="435.0545" x2="-224.9865" y2="435.0545" gradientTransform="matrix(14.9571 0 0 -14.9501 3380.1274 6511.5342)">
						<stop  offset="0" style="stop-color:#7C72FF"/>
						<stop  offset="1" style="stop-color:#6D64F4"/>
					</linearGradient>
					<path id="Fill-89" class="st42" d="M14.8,3.4c-1.5-0.7-2.6-1.8-3.3-3.3C11.4,0,11.3,0,11.2,0H0.4C0.3,0,0.2,0,0.1,0.1
						C0.1,0.1,0,0.2,0,0.3c0,0,0,0,0,0.1C0.6,4.1,2.4,7.5,4.9,10c1.6,1.6,3.4,2.8,5.5,3.7c1.3,0.5,2.7,1,4.1,1.2c0,0,0,0,0.1,0
						c0.1,0,0.2,0,0.2-0.1c0.1-0.1,0.1-0.2,0.1-0.3V3.8C15,3.6,14.9,3.5,14.8,3.4z M14.3,14.1c-0.8-0.1-1.5-0.3-2.2-0.6
						C6.3,11.6,2,6.8,0.8,0.7h10.1c0.7,1.4,1.9,2.6,3.3,3.3V14.1z"/>
				</g>
				<g id="Group-96" transform="translate(24.984375, 43.608735)">
					<g id="Clip-95">
					</g>
					<defs>
						<filter id="Adobe_OpacityMaskFilter_21_" filterUnits="userSpaceOnUse" x="0.6" y="0" width="15" height="15">
							<feColorMatrix  type="matrix" values="1 0 0 0 0  0 1 0 0 0  0 0 1 0 0  0 0 0 1 0"/>
						</filter>
					</defs>
					<mask maskUnits="userSpaceOnUse" x="0.6" y="0" width="15" height="15" id="mask-65_1_">
						<g class="st43">
							<path id="path-64_1_" class="st1" d="M4.4-0.1C4.3-0.1,4.1,0,4.1,0.2l0,0C3.4,1.6,2.3,2.8,0.8,3.4l0,0
								C0.7,3.5,0.6,3.6,0.6,3.8l0,0v10.8c0,0.1,0,0.2,0.1,0.3l0,0c0.1,0.1,0.2,0.1,0.2,0.1l0,0c0,0,0,0,0.1,0l0,0
								c7.5-1.2,13.3-7,14.5-14.5l0,0c0-0.1,0-0.2-0.1-0.3l0,0c-0.1-0.1-0.2-0.1-0.3-0.1l0,0H4.4z M1.3,4c1.5-0.7,2.6-1.9,3.3-3.3
								l0,0h10.1C13.5,7.5,8.2,12.8,1.3,14.1l0,0V4z"/>
						</g>
					</mask>
					
						<linearGradient id="Fill-94_1_" gradientUnits="userSpaceOnUse" x1="-245.2038" y1="435.0545" x2="-244.2035" y2="435.0545" gradientTransform="matrix(14.9556 0 0 -14.9501 3667.7642 6511.5342)">
						<stop  offset="0" style="stop-color:#7C72FF"/>
						<stop  offset="1" style="stop-color:#6D64F4"/>
					</linearGradient>
					<path id="Fill-94" class="st44" d="M15.5,0.1C15.4,0,15.3,0,15.2,0H4.4C4.3,0,4.1,0,4.1,0.2C3.4,1.6,2.3,2.8,0.8,3.4
						C0.7,3.5,0.6,3.6,0.6,3.8v10.8c0,0.1,0,0.2,0.1,0.3c0.1,0.1,0.1,0.1,0.2,0.1c0,0,0,0,0.1,0c1.6-0.3,3.1-0.7,4.5-1.4
						c1.9-0.9,3.6-2.1,5.1-3.5c2.5-2.5,4.3-5.9,4.9-9.6c0,0,0,0,0-0.1C15.5,0.2,15.5,0.1,15.5,0.1z M3.6,13.5
						c-0.7,0.2-1.5,0.4-2.2,0.6V4c1.5-0.7,2.6-1.9,3.3-3.3h10.1C13.6,6.7,9.3,11.6,3.6,13.5z"/>
				</g>
			</g>
		</g>
	</g>
</g>
</svg>
