<?xml version="1.0" encoding="utf-8"?>
<!-- Generator: Adobe Illustrator 24.1.0, SVG Export Plug-In . SVG Version: 6.00 Build 0)  -->
<svg version="1.1" id="Capa_1" xmlns="http://www.w3.org/2000/svg" xmlns:xlink="http://www.w3.org/1999/xlink" x="0px" y="0px"
	 viewBox="0 0 20 18" style="enable-background:new 0 0 20 18;" xml:space="preserve">
<style type="text/css">
	.st0{fill:#FFFFFF;}
	.st1{fill:#572EE5;}
</style>
<desc>Created with Sketch.</desc>
<g id="GIFOS_1_">
	<g id="_x30_0-UI-Kit" transform="translate(-858.000000, -2777.000000)">
		<g id="icon-fav-hover" transform="translate(858.000000, 2777.000000)">
			<path id="Rectangle-Copy-7" class="st0" d="M4.4,0h11.2C17.5,0,19,1.5,19,3.4v11.2c0,1.9-1.5,3.4-3.4,3.4H4.4
				C2.5,18,1,16.5,1,14.6V3.4C1,1.5,2.5,0,4.4,0z"/>
			<g>
				<path id="path-1_2_" class="st1" d="M10.2,5.3c0.5-0.5,1.3-0.8,2-0.8c0.8,0,1.5,0.3,2,0.8c0.5,0.5,0.8,1.3,0.8,2s-0.3,1.5-0.8,2
					l-3.9,3.9c-0.2,0.2-0.5,0.2-0.6,0L5.8,9.4c-1.1-1.1-1.1-2.9,0-4.1s2.9-1.1,4.1,0L10,5.5L10.2,5.3z M10,12.4l3.1-3.1l0.5-0.5
					c0.4-0.4,0.6-0.9,0.6-1.4S14,6.3,13.6,6c-0.4-0.4-0.9-0.6-1.4-0.6c-0.5,0-1,0.2-1.4,0.6l-0.5,0.5c-0.2,0.2-0.5,0.2-0.6,0L9.2,6
					c-0.8-0.8-2-0.8-2.8,0s-0.8,2,0,2.8L10,12.4z"/>
			</g>
		</g>
	</g>
</g>
<g id="GIFOS">
	<g id="_x32_4-Mobile-Gifo-Max" transform="translate(-261.000000, -427.000000)">
		<g id="icon-fav-active">
			<path id="path-1_1_" class="st1" d="M273,431.8c0.7,0,1.4,0.3,1.9,0.8c0.5,0.5,0.8,1.2,0.8,1.9c0,0.7-0.3,1.4-0.8,1.9l-3.6,3.6
				c-0.2,0.2-0.4,0.2-0.6,0l-3.6-3.6c-1-1-1-2.7,0-3.8c1-1,2.7-1,3.7,0l0.1,0.1l0.1-0.1C271.6,432.1,272.3,431.8,273,431.8z"/>
		</g>
	</g>
</g>
</svg>
