<?xml version="1.0" encoding="utf-8"?>
<!-- Generator: Adobe Illustrator 24.1.0, SVG Export Plug-In . SVG Version: 6.00 Build 0)  -->
<svg version="1.1" id="Capa_1" xmlns="http://www.w3.org/2000/svg" xmlns:xlink="http://www.w3.org/1999/xlink" x="0px" y="0px"
	 viewBox="0 0 20 20" style="enable-background:new 0 0 20 20;" xml:space="preserve">
<style type="text/css">
	.st0{filter:url(#Adobe_OpacityMaskFilter);}
	.st1{fill-rule:evenodd;clip-rule:evenodd;fill:#FFFFFF;}
	.st2{mask:url(#mask-2_1_);}
	.st3{fill-rule:evenodd;clip-rule:evenodd;fill:#BABABA;}
</style>
<desc>Created with Sketch.</desc>
<defs>
	<filter id="Adobe_OpacityMaskFilter" filterUnits="userSpaceOnUse" x="-2" y="-2" width="24" height="24">
		<feColorMatrix  type="matrix" values="1 0 0 0 0  0 1 0 0 0  0 0 1 0 0  0 0 0 1 0"/>
	</filter>
</defs>
<mask maskUnits="userSpaceOnUse" x="-2" y="-2" width="24" height="24" id="mask-2_1_">
	<g class="st0">
		<path id="path-1_2_" class="st1" d="M8.5,0C13.2,0,17,3.8,17,8.5c0,2-0.7,3.8-1.8,5.3l4.5,4.5c0.4,0.4,0.4,1,0,1.4
			c-0.4,0.4-1,0.4-1.4,0l0,0l-4.5-4.5c-1.4,1.1-3.3,1.8-5.3,1.8C3.8,17,0,13.2,0,8.5S3.8,0,8.5,0z M8.5,2C4.9,2,2,4.9,2,8.5
			S4.9,15,8.5,15c1.8,0,3.4-0.7,4.5-1.9l0-0.1c0,0,0,0,0,0c1.1-1.2,1.9-2.8,1.9-4.5C15,4.9,12.1,2,8.5,2z"/>
	</g>
</mask>
<g id="Primary-color-Copy-2" class="st2">
	<g id="Rectangle" transform="translate(-2.000000, -2.000000)">
		<rect class="st3" width="24" height="24"/>
	</g>
</g>
</svg>
