<?xml version="1.0" encoding="utf-8"?>
<!-- Generator: Adobe Illustrator 24.1.0, SVG Export Plug-In . SVG Version: 6.00 Build 0)  -->
<svg version="1.1" id="Capa_1" xmlns="http://www.w3.org/2000/svg" xmlns:xlink="http://www.w3.org/1999/xlink" x="0px" y="0px"
	 viewBox="0 0 63 60" style="enable-background:new 0 0 63 60;" xml:space="preserve">
<style type="text/css">
	.st0{fill-rule:evenodd;clip-rule:evenodd;fill:#5ED7C6;}
	.st1{filter:url(#Adobe_OpacityMaskFilter);}
	.st2{fill-rule:evenodd;clip-rule:evenodd;fill:#FFFFFF;}
	.st3{mask:url(#mask-2_1_);enable-background:new    ;}
	.st4{fill:#572EE5;}
	.st5{font-family:'Roboto-Black';}
	.st6{font-size:21px;}
</style>
<desc>Created with Sketch.</desc>
<g id="GIFOS_1_">
	<g id="_x30_0-UI-Kit" transform="translate(-156.000000, -2463.000000)">
		<g id="logo-desktop" transform="translate(156.000000, 2463.000000)">
			<g id="Group-5">
				<polygon id="Fill-1" class="st0" points="0,0 0,59.1 59.1,59.1 59.1,46.4 54.9,46.4 54.9,54.9 4.2,54.9 4.2,4.2 42.2,4.2 
					42.2,16.9 54.9,16.9 54.9,25.3 59.1,25.3 59.1,12.7 46.4,0 				"/>
				<g id="Group-4" transform="translate(9.000000, 20.000000)">
					<g id="Clip-3">
					</g>
					<defs>
						<filter id="Adobe_OpacityMaskFilter" filterUnits="userSpaceOnUse" x="-2" y="5" width="59.8" height="23.7">
							<feColorMatrix  type="matrix" values="1 0 0 0 0  0 1 0 0 0  0 0 1 0 0  0 0 0 1 0"/>
						</filter>
					</defs>
					<mask maskUnits="userSpaceOnUse" x="-2" y="5" width="59.8" height="23.7" id="mask-2_1_">
						<g class="st1">
							<polygon id="path-1_1_" class="st2" points="-4.5,2.5 53.3,2.5 53.3,26.2 -4.5,26.2 							"/>
						</g>
					</mask>
					<g class="st3">
						<text transform="matrix(1 0 0 1 -2 23)" class="st4 st5 st6">GIFOS</text>
					</g>
				</g>
			</g>
		</g>
	</g>
</g>
</svg>
