<?xml version="1.0" encoding="utf-8"?>
<!-- Generator: Adobe Illustrator 24.1.0, SVG Export Plug-In . SVG Version: 6.00 Build 0)  -->
<svg version="1.1" id="Capa_1" xmlns="http://www.w3.org/2000/svg" xmlns:xlink="http://www.w3.org/1999/xlink" x="0px" y="0px"
	 viewBox="0 0 142 88" style="enable-background:new 0 0 142 88;" xml:space="preserve">
<style type="text/css">
	.st0{fill:none;}
	.st1{fill:url(#SVGID_1_);}
	.st2{fill:url(#SVGID_2_);}
	.st3{fill:url(#SVGID_3_);}
	.st4{fill:url(#SVGID_4_);}
	.st5{fill:url(#SVGID_5_);}
	.st6{fill:url(#SVGID_6_);}
	.st7{fill:url(#SVGID_7_);}
	.st8{fill:url(#SVGID_8_);}
	.st9{fill:url(#SVGID_9_);}
	.st10{fill:url(#SVGID_10_);}
	.st11{fill:url(#SVGID_11_);}
	.st12{fill:url(#SVGID_12_);}
	.st13{fill:url(#SVGID_13_);}
	.st14{fill:url(#SVGID_14_);}
	.st15{filter:url(#Adobe_OpacityMaskFilter);}
	.st16{fill-rule:evenodd;clip-rule:evenodd;fill:#FFFFFF;}
	.st17{mask:url(#mask-11_1_);fill-rule:evenodd;clip-rule:evenodd;fill:url(#Fill-16_1_);}
	.st18{filter:url(#Adobe_OpacityMaskFilter_1_);}
	.st19{mask:url(#mask-14_1_);fill-rule:evenodd;clip-rule:evenodd;fill:url(#Fill-21_1_);}
	.st20{filter:url(#Adobe_OpacityMaskFilter_2_);}
	.st21{mask:url(#mask-17_1_);fill-rule:evenodd;clip-rule:evenodd;fill:url(#Fill-26_1_);}
	.st22{filter:url(#Adobe_OpacityMaskFilter_3_);}
	.st23{mask:url(#mask-20_1_);fill-rule:evenodd;clip-rule:evenodd;fill:url(#Fill-31_1_);}
	.st24{filter:url(#Adobe_OpacityMaskFilter_4_);}
	.st25{mask:url(#mask-23_1_);fill-rule:evenodd;clip-rule:evenodd;fill:url(#Fill-36_1_);}
</style>
<desc>Created with Sketch.</desc>
<g id="Clip-2">
</g>
<g id="Clip-7">
</g>
<g id="Clip-12">
</g>
<g id="Clip-17">
</g>
<g id="Clip-22">
</g>
<g id="Clip-27">
</g>
<g id="Clip-32">
</g>
<g id="Clip-37">
</g>
<g>
	<g>
		<path class="st0" d="M38.5,33.2V16.3C27,18.4,18.1,27.3,16,38.8h16.9C34.1,36.3,36,34.4,38.5,33.2z"/>
		<path class="st0" d="M32.9,49.3H16c2.1,11.5,11,20.4,22.5,22.5V54.8C36,53.7,34.1,51.7,32.9,49.3z"/>
		<path class="st0" d="M49,16.3v16.9c2.4,1.2,4.4,3.1,5.6,5.6h17C69.4,27.3,60.5,18.4,49,16.3z"/>
		<path class="st0" d="M48.6,39.2c-1.2-1.2-3-2-4.8-2c-3.8,0-6.8,3.1-6.8,6.8c0,1.9,0.8,3.6,2,4.8c1.2,1.2,3,2,4.8,2
			c1.9,0,3.6-0.8,4.8-2c1.2-1.2,2-2.9,2-4.8C50.6,42.1,49.8,40.4,48.6,39.2z"/>
		<path class="st0" d="M43.8,11.3C25.7,11.3,11,26,11,44c0,9,3.7,17.2,9.6,23.1c5.9,5.9,14.1,9.6,23.1,9.6c9,0,17.2-3.7,23.1-9.6
			c5.8-5.8,9.4-13.7,9.6-22.5h-1.7c-0.3,0-0.6-0.3-0.6-0.6c0-0.3,0.3-0.6,0.6-0.6h1.7c-0.2-8.8-3.8-16.7-9.6-22.5
			C61,15,52.8,11.3,43.8,11.3z M14.6,39.3c2-12.5,11.8-22.3,24.4-24.3c0,0,0.1,0,0.1,0c0.1,0,0.3,0,0.4,0.2c0.1,0.1,0.2,0.3,0.2,0.5
			v18.1c0,0.2-0.1,0.5-0.4,0.6c-1.2,0.5-2.3,1.3-3.2,2.2c-0.9,0.9-1.7,2-2.2,3.2c-0.1,0.2-0.3,0.4-0.6,0.4H15.2
			c-0.2,0-0.3-0.1-0.5-0.2C14.7,39.6,14.6,39.5,14.6,39.3L14.6,39.3z M39.7,72.5c0,0.2-0.1,0.3-0.2,0.5c-0.1,0.1-0.2,0.1-0.4,0.1H39
			c-6.3-1-11.9-4-16.1-8.2c-4.3-4.3-7.2-9.8-8.2-16.1v-0.1c0-0.2,0-0.3,0.1-0.4c0.1-0.1,0.3-0.2,0.5-0.2h18.1c0.2,0,0.5,0.1,0.6,0.4
			c0.5,1.2,1.3,2.3,2.2,3.2c0.9,0.9,2,1.7,3.2,2.2c0.2,0.1,0.4,0.3,0.4,0.6V72.5z M35.7,44c0-2.2,0.9-4.2,2.4-5.7
			c1.5-1.5,3.5-2.4,5.7-2.4c2.2,0,4.2,0.9,5.7,2.4c1.5,1.5,2.4,3.5,2.4,5.7c0,2.2-0.9,4.2-2.4,5.7c-1.5,1.5-3.5,2.4-5.7,2.4
			C39.3,52.1,35.7,48.4,35.7,44z M72.8,48.8c-1,6.3-4,11.9-8.2,16.1c-4.3,4.3-9.9,7.2-16.1,8.2h-0.1c-0.1,0-0.3,0-0.4-0.1
			c-0.1-0.1-0.2-0.3-0.2-0.5V54.4c0-0.2,0.1-0.5,0.4-0.6c1.2-0.5,2.3-1.3,3.2-2.2c0.9-0.9,1.7-2,2.2-3.2c0.1-0.2,0.3-0.4,0.6-0.4
			h18.1c0.2,0,0.3,0.1,0.5,0.2C72.8,48.4,72.8,48.5,72.8,48.8L72.8,48.8z M72.8,39.3c0,0.2,0,0.3-0.1,0.4c-0.1,0.1-0.3,0.2-0.5,0.2
			H54.2c-0.2,0-0.5-0.1-0.6-0.4c-0.5-1.2-1.3-2.3-2.2-3.2c-0.9-0.9-2-1.7-3.2-2.2c-0.2-0.1-0.4-0.3-0.4-0.6V15.5
			c0-0.2,0.1-0.3,0.2-0.5c0.1-0.1,0.2-0.2,0.4-0.2c0,0,0.1,0,0.1,0c6.3,1,11.9,4,16.1,8.2C68.9,27.4,71.8,33,72.8,39.3L72.8,39.3z"
			/>
		<path class="st0" d="M49,54.8v16.9c11.5-2.1,20.4-11,22.5-22.5h-17C53.4,51.7,51.4,53.7,49,54.8z"/>
		<path class="st0" d="M43.8,1.7C20.4,1.7,1.4,20.6,1.4,44c0,11.7,4.8,22.2,12.4,29.9c7.7,7.7,18.2,12.4,29.9,12.4
			S66,81.6,73.7,73.9c7.5-7.5,12.2-17.9,12.4-29.3h-8.4C77.5,53.7,73.8,62,67.8,68c-6.2,6.2-14.6,10-24,10C25,77.9,9.8,62.7,9.8,44
			c0-9.4,3.8-17.8,10-24c6.1-6.1,14.6-9.9,24-9.9c9.4,0,17.8,3.8,24,9.9c6,6,9.8,14.3,9.9,23.4h8.4C85.9,32,81.2,21.6,73.7,14.1
			C66,6.4,55.4,1.7,43.8,1.7z"/>
		<linearGradient id="SVGID_1_" gradientUnits="userSpaceOnUse" x1="74.1262" y1="65.4721" x2="141.8238" y2="65.4721">
			<stop  offset="0" style="stop-color:#7C72FF"/>
			<stop  offset="1" style="stop-color:#6D64F4"/>
		</linearGradient>
		<path class="st1" d="M141.2,86.3h-22.8c-8,0-14.6-6.5-14.6-14.6V59.2c0-8.7-6.7-15.8-14.8-15.8h-1.6c0,0.2,0,0.4,0,0.6
			c0,0.2,0,0.4,0,0.6H89c7.5,0,13.6,6.5,13.6,14.6v12.5c0,8.7,7.1,15.8,15.8,15.8h22.8c0.3,0,0.6-0.3,0.6-0.6S141.5,86.3,141.2,86.3
			z"/>
		<linearGradient id="SVGID_2_" gradientUnits="userSpaceOnUse" x1="0.1762" y1="44" x2="87.3206" y2="44">
			<stop  offset="0" style="stop-color:#7C72FF"/>
			<stop  offset="1" style="stop-color:#6D64F4"/>
		</linearGradient>
		<path class="st2" d="M73.7,73.9C66,81.6,55.4,86.3,43.8,86.3s-22.3-4.8-29.9-12.4C6.2,66.2,1.4,55.7,1.4,44
			c0-23.4,19-42.3,42.4-42.3c11.7,0,22.3,4.8,29.9,12.4c7.5,7.5,12.2,17.9,12.4,29.3h1.2c-0.2-11.8-5-22.4-12.8-30.2
			C66.7,5.3,55.8,0.4,43.8,0.4C19.7,0.4,0.2,20,0.2,44c0,12,4.9,22.9,12.8,30.8c7.9,7.9,18.8,12.8,30.8,12.8
			c12,0,22.9-4.9,30.8-12.8c7.8-7.8,12.6-18.4,12.8-30.2h-1.2C85.9,56,81.2,66.4,73.7,73.9z"/>
		<linearGradient id="SVGID_3_" gradientUnits="userSpaceOnUse" x1="74.1262" y1="43.9981" x2="141.8238" y2="43.9981">
			<stop  offset="0" style="stop-color:#7C72FF"/>
			<stop  offset="1" style="stop-color:#6D64F4"/>
		</linearGradient>
		<path class="st3" d="M87.3,43.4h-1.2c0,0.2,0,0.4,0,0.6c0,0.2,0,0.4,0,0.6h1.2c0-0.2,0-0.4,0-0.6C87.3,43.8,87.3,43.6,87.3,43.4z"
			/>
		<linearGradient id="SVGID_4_" gradientUnits="userSpaceOnUse" x1="0.1762" y1="43.9981" x2="87.3362" y2="43.9981">
			<stop  offset="0" style="stop-color:#7C72FF"/>
			<stop  offset="1" style="stop-color:#6D64F4"/>
		</linearGradient>
		<path class="st4" d="M87.3,43.4h-1.2c0,0.2,0,0.4,0,0.6c0,0.2,0,0.4,0,0.6h1.2c0-0.2,0-0.4,0-0.6C87.3,43.8,87.3,43.6,87.3,43.4z"
			/>
		<linearGradient id="SVGID_5_" gradientUnits="userSpaceOnUse" x1="9.8162" y1="60.59" x2="77.7061" y2="60.59">
			<stop  offset="0" style="stop-color:#7C72FF"/>
			<stop  offset="1" style="stop-color:#6D64F4"/>
		</linearGradient>
		<path class="st5" d="M72.2,48.1H54.2c-0.2,0-0.5,0.1-0.6,0.4c-0.5,1.2-1.3,2.3-2.2,3.2c-0.9,0.9-2,1.7-3.2,2.2
			c-0.2,0.1-0.4,0.3-0.4,0.6v18.1c0,0.2,0.1,0.3,0.2,0.5c0.1,0.1,0.2,0.1,0.4,0.1h0.1c6.3-1,11.9-4,16.1-8.2
			c4.3-4.3,7.2-9.8,8.2-16.1v-0.1c0-0.2,0-0.3-0.1-0.4C72.6,48.1,72.4,48.1,72.2,48.1z M49,71.8V54.8c2.4-1.2,4.4-3.1,5.6-5.6h17
			C69.4,60.7,60.5,69.6,49,71.8z"/>
		<linearGradient id="SVGID_6_" gradientUnits="userSpaceOnUse" x1="9.8162" y1="27.45" x2="77.7061" y2="27.45">
			<stop  offset="0" style="stop-color:#7C72FF"/>
			<stop  offset="1" style="stop-color:#6D64F4"/>
		</linearGradient>
		<path class="st6" d="M15.2,40h18.1c0.2,0,0.5-0.1,0.6-0.4c0.5-1.2,1.3-2.3,2.2-3.2c0.9-0.9,2-1.7,3.2-2.2c0.2-0.1,0.4-0.3,0.4-0.6
			V15.5c0-0.2-0.1-0.3-0.2-0.5c-0.1-0.1-0.2-0.2-0.4-0.2c0,0-0.1,0-0.1,0c-12.6,2-22.3,11.8-24.4,24.3v0.1c0,0.2,0,0.3,0.1,0.4
			C14.9,39.9,15.1,40,15.2,40z M38.5,16.3v16.9c-2.4,1.2-4.4,3.1-5.6,5.6H16C18.1,27.3,27,18.4,38.5,16.3z"/>
		<linearGradient id="SVGID_7_" gradientUnits="userSpaceOnUse" x1="9.8162" y1="60.59" x2="77.7061" y2="60.59">
			<stop  offset="0" style="stop-color:#7C72FF"/>
			<stop  offset="1" style="stop-color:#6D64F4"/>
		</linearGradient>
		<path class="st7" d="M39.3,53.9c-1.2-0.5-2.3-1.3-3.2-2.2c-0.9-0.9-1.7-2-2.2-3.2c-0.1-0.2-0.3-0.4-0.6-0.4H15.2
			c-0.2,0-0.3,0.1-0.5,0.2c-0.1,0.1-0.1,0.3-0.1,0.4v0.1c1,6.3,4,11.9,8.2,16.1c4.3,4.3,9.9,7.2,16.1,8.2h0.1c0.1,0,0.3,0,0.4-0.1
			c0.1-0.1,0.2-0.3,0.2-0.5V54.4C39.7,54.2,39.6,54,39.3,53.9z M38.5,71.8C27,69.6,18.1,60.7,16,49.3h16.9c1.2,2.4,3.1,4.4,5.6,5.6
			V71.8z"/>
		<linearGradient id="SVGID_8_" gradientUnits="userSpaceOnUse" x1="9.8162" y1="43.995" x2="77.7061" y2="43.995">
			<stop  offset="0" style="stop-color:#7C72FF"/>
			<stop  offset="1" style="stop-color:#6D64F4"/>
		</linearGradient>
		<path class="st8" d="M51.8,44c0-2.2-0.9-4.2-2.4-5.7c-1.5-1.5-3.5-2.4-5.7-2.4c-2.2,0-4.2,0.9-5.7,2.4c-1.5,1.5-2.4,3.5-2.4,5.7
			c0,4.4,3.6,8.1,8.1,8.1c2.2,0,4.2-0.9,5.7-2.4C50.9,48.2,51.8,46.2,51.8,44z M43.8,50.8c-1.9,0-3.6-0.8-4.8-2
			c-1.2-1.2-2-2.9-2-4.8c0-3.8,3.1-6.8,6.8-6.8c1.9,0,3.6,0.8,4.8,2s2,2.9,2,4.8c0,1.9-0.8,3.6-2,4.8C47.4,50.1,45.6,50.8,43.8,50.8
			z"/>
		<linearGradient id="SVGID_9_" gradientUnits="userSpaceOnUse" x1="9.8162" y1="27.45" x2="77.7061" y2="27.45">
			<stop  offset="0" style="stop-color:#7C72FF"/>
			<stop  offset="1" style="stop-color:#6D64F4"/>
		</linearGradient>
		<path class="st9" d="M48.5,14.9C48.5,14.9,48.4,14.9,48.5,14.9c-0.2,0-0.4,0-0.5,0.1c-0.1,0.1-0.2,0.3-0.2,0.5v18.1
			c0,0.2,0.1,0.5,0.4,0.6c1.2,0.5,2.3,1.3,3.2,2.2c0.9,0.9,1.7,2,2.2,3.2c0.1,0.2,0.3,0.4,0.6,0.4h18.1c0.2,0,0.3-0.1,0.5-0.2
			c0.1-0.1,0.1-0.3,0.1-0.4v-0.1c-1-6.3-4-11.9-8.2-16.1C60.4,18.9,54.8,15.9,48.5,14.9z M54.6,38.8c-1.2-2.4-3.1-4.4-5.6-5.6V16.3
			c11.5,2.1,20.4,11,22.5,22.5H54.6z"/>
		<linearGradient id="SVGID_10_" gradientUnits="userSpaceOnUse" x1="0.1762" y1="44" x2="87.3362" y2="44">
			<stop  offset="0" style="stop-color:#7C72FF"/>
			<stop  offset="1" style="stop-color:#6D64F4"/>
		</linearGradient>
		<path class="st10" d="M66.9,67.1C61,73,52.8,76.7,43.8,76.7c-9,0-17.2-3.7-23.1-9.6C14.7,61.2,11,53,11,44
			c0-18,14.7-32.7,32.7-32.7c9,0,17.2,3.7,23.1,9.6c5.8,5.8,9.4,13.7,9.6,22.5h1.2C77.5,34.3,73.8,26,67.8,20
			c-6.2-6.1-14.6-9.9-24-9.9c-9.4,0-17.8,3.8-24,9.9c-6.2,6.1-10,14.6-10,24c0,18.7,15.2,33.9,33.9,33.9c9.4,0,17.8-3.8,24-10
			c6-6,9.8-14.3,9.9-23.4h-1.2C76.3,53.4,72.7,61.3,66.9,67.1z"/>
		<linearGradient id="SVGID_11_" gradientUnits="userSpaceOnUse" x1="9.8162" y1="44" x2="77.6906" y2="44">
			<stop  offset="0" style="stop-color:#7C72FF"/>
			<stop  offset="1" style="stop-color:#6D64F4"/>
		</linearGradient>
		<path class="st11" d="M66.9,67.1C61,73,52.8,76.7,43.8,76.7c-9,0-17.2-3.7-23.1-9.6C14.7,61.2,11,53,11,44
			c0-18,14.7-32.7,32.7-32.7c9,0,17.2,3.7,23.1,9.6c5.8,5.8,9.4,13.7,9.6,22.5h1.2C77.5,34.3,73.8,26,67.8,20
			c-6.2-6.1-14.6-9.9-24-9.9c-9.4,0-17.8,3.8-24,9.9c-6.2,6.1-10,14.6-10,24c0,18.7,15.2,33.9,33.9,33.9c9.4,0,17.8-3.8,24-10
			c6-6,9.8-14.3,9.9-23.4h-1.2C76.3,53.4,72.7,61.3,66.9,67.1z"/>
		<linearGradient id="SVGID_12_" gradientUnits="userSpaceOnUse" x1="74.1262" y1="43.9981" x2="141.8238" y2="43.9981">
			<stop  offset="0" style="stop-color:#7C72FF"/>
			<stop  offset="1" style="stop-color:#6D64F4"/>
		</linearGradient>
		<path class="st12" d="M77.7,43.4h-1.2c0,0.2,0,0.4,0,0.6c0,0.2,0,0.4,0,0.6h1.2c0-0.2,0-0.4,0-0.6C77.7,43.8,77.7,43.6,77.7,43.4z
			"/>
		<linearGradient id="SVGID_13_" gradientUnits="userSpaceOnUse" x1="0.1762" y1="43.9981" x2="87.3362" y2="43.9981">
			<stop  offset="0" style="stop-color:#7C72FF"/>
			<stop  offset="1" style="stop-color:#6D64F4"/>
		</linearGradient>
		<path class="st13" d="M77.7,43.4h-1.2c0,0.2,0,0.4,0,0.6c0,0.2,0,0.4,0,0.6h1.2c0-0.2,0-0.4,0-0.6C77.7,43.8,77.7,43.6,77.7,43.4z
			"/>
		<linearGradient id="SVGID_14_" gradientUnits="userSpaceOnUse" x1="9.8162" y1="43.9981" x2="77.7061" y2="43.9981">
			<stop  offset="0" style="stop-color:#7C72FF"/>
			<stop  offset="1" style="stop-color:#6D64F4"/>
		</linearGradient>
		<path class="st14" d="M77.7,43.4h-1.2c0,0.2,0,0.4,0,0.6c0,0.2,0,0.4,0,0.6h1.2c0-0.2,0-0.4,0-0.6C77.7,43.8,77.7,43.6,77.7,43.4z
			"/>
	</g>
	<defs>
		<filter id="Adobe_OpacityMaskFilter" filterUnits="userSpaceOnUse" x="35.7" y="35.9" width="16.1" height="16.1">
			<feColorMatrix  type="matrix" values="1 0 0 0 0  0 1 0 0 0  0 0 1 0 0  0 0 0 1 0"/>
		</filter>
	</defs>
	<mask maskUnits="userSpaceOnUse" x="35.7" y="35.9" width="16.1" height="16.1" id="mask-11_1_">
		<g class="st15">
			<path id="path-10_1_" class="st16" d="M35.7,44c0,4.4,3.6,8.1,8.1,8.1l0,0c4.4,0,8.1-3.6,8.1-8.1l0,0c0-4.4-3.6-8.1-8.1-8.1l0,0
				C39.3,35.9,35.7,39.6,35.7,44 M36.9,44c0-3.8,3.1-6.8,6.8-6.8l0,0c3.8,0,6.8,3.1,6.8,6.8l0,0c0,3.8-3.1,6.8-6.8,6.8l0,0
				C40,50.8,36.9,47.8,36.9,44"/>
		</g>
	</mask>
	
		<linearGradient id="Fill-16_1_" gradientUnits="userSpaceOnUse" x1="-211.9832" y1="441.0229" x2="-210.9832" y2="441.0229" gradientTransform="matrix(16.1363 0 0 -16.1284 3456.3181 7156.9971)">
		<stop  offset="0" style="stop-color:#7C72FF"/>
		<stop  offset="1" style="stop-color:#6D64F4"/>
	</linearGradient>
	<path id="Fill-16" class="st17" d="M35.7,44c0,4.4,3.6,8.1,8.1,8.1l0,0c4.4,0,8.1-3.6,8.1-8.1l0,0c0-4.4-3.6-8.1-8.1-8.1l0,0
		C39.3,35.9,35.7,39.6,35.7,44 M36.9,44c0-3.8,3.1-6.8,6.8-6.8l0,0c3.8,0,6.8,3.1,6.8,6.8l0,0c0,3.8-3.1,6.8-6.8,6.8l0,0
		C40,50.8,36.9,47.8,36.9,44"/>
	<defs>
		<filter id="Adobe_OpacityMaskFilter_1_" filterUnits="userSpaceOnUse" x="47.8" y="14.9" width="25.1" height="25.1">
			<feColorMatrix  type="matrix" values="1 0 0 0 0  0 1 0 0 0  0 0 1 0 0  0 0 0 1 0"/>
		</filter>
	</defs>
	<mask maskUnits="userSpaceOnUse" x="47.8" y="14.9" width="25.1" height="25.1" id="mask-14_1_">
		<g class="st18">
			<path id="path-13_1_" class="st16" d="M48,15.1c-0.1,0.1-0.2,0.3-0.2,0.5l0,0v18.1c0,0.2,0.1,0.5,0.4,0.6l0,0
				c2.4,1.1,4.4,3,5.5,5.5l0,0c0.1,0.2,0.3,0.4,0.6,0.4l0,0h18.1c0.2,0,0.3-0.1,0.5-0.2l0,0c0.1-0.1,0.2-0.3,0.1-0.5l0,0
				c-2-12.6-11.8-22.3-24.4-24.3l0,0c0,0-0.1,0-0.1,0l0,0C48.2,14.9,48.1,15,48,15.1 M49,33.2V16.3c11.5,2.1,20.4,11,22.5,22.5l0,0
				H54.6C53.4,36.3,51.4,34.4,49,33.2"/>
		</g>
	</mask>
	
		<linearGradient id="Fill-21_1_" gradientUnits="userSpaceOnUse" x1="-216.9791" y1="449.3514" x2="-215.9791" y2="449.3514" gradientTransform="matrix(25.0727 0 0 -25.0607 5488.0303 11288.5127)">
		<stop  offset="0" style="stop-color:#7C72FF"/>
		<stop  offset="1" style="stop-color:#6D64F4"/>
	</linearGradient>
	<path id="Fill-21" class="st19" d="M48,15.1c-0.1,0.1-0.2,0.3-0.2,0.5l0,0v18.1c0,0.2,0.1,0.5,0.4,0.6l0,0c2.4,1.1,4.4,3,5.5,5.5
		l0,0c0.1,0.2,0.3,0.4,0.6,0.4l0,0h18.1c0.2,0,0.3-0.1,0.5-0.2l0,0c0.1-0.1,0.2-0.3,0.1-0.5l0,0c-2-12.6-11.8-22.3-24.4-24.3l0,0
		c0,0-0.1,0-0.1,0l0,0C48.2,14.9,48.1,15,48,15.1 M49,33.2V16.3c11.5,2.1,20.4,11,22.5,22.5l0,0H54.6C53.4,36.3,51.4,34.4,49,33.2"
		/>
	<defs>
		<filter id="Adobe_OpacityMaskFilter_2_" filterUnits="userSpaceOnUse" x="14.6" y="14.9" width="25.1" height="25.1">
			<feColorMatrix  type="matrix" values="1 0 0 0 0  0 1 0 0 0  0 0 1 0 0  0 0 0 1 0"/>
		</filter>
	</defs>
	<mask maskUnits="userSpaceOnUse" x="14.6" y="14.9" width="25.1" height="25.1" id="mask-17_1_">
		<g class="st20">
			<path id="path-16_1_" class="st16" d="M39,14.9c-12.6,2-22.3,11.8-24.4,24.3l0,0c0,0.2,0,0.4,0.1,0.5l0,0
				c0.1,0.1,0.3,0.2,0.5,0.2l0,0h18.1c0.2,0,0.5-0.1,0.6-0.4l0,0c1.1-2.4,3-4.4,5.5-5.5l0,0c0.2-0.1,0.4-0.3,0.4-0.6l0,0V15.5
				c0-0.2-0.1-0.3-0.2-0.5l0,0C39.4,15,39.2,14.9,39,14.9L39,14.9C39,14.9,39,14.9,39,14.9 M38.5,16.3v16.9
				c-2.4,1.2-4.4,3.1-5.6,5.6l0,0H16C18.1,27.3,27,18.4,38.5,16.3"/>
		</g>
	</mask>
	
		<linearGradient id="Fill-26_1_" gradientUnits="userSpaceOnUse" x1="-216.9794" y1="449.3514" x2="-215.9794" y2="449.3514" gradientTransform="matrix(25.0737 0 0 -25.0607 5455.0962 11288.5127)">
		<stop  offset="0" style="stop-color:#7C72FF"/>
		<stop  offset="1" style="stop-color:#6D64F4"/>
	</linearGradient>
	<path id="Fill-26" class="st21" d="M39,14.9c-12.6,2-22.3,11.8-24.4,24.3l0,0c0,0.2,0,0.4,0.1,0.5l0,0c0.1,0.1,0.3,0.2,0.5,0.2l0,0
		h18.1c0.2,0,0.5-0.1,0.6-0.4l0,0c1.1-2.4,3-4.4,5.5-5.5l0,0c0.2-0.1,0.4-0.3,0.4-0.6l0,0V15.5c0-0.2-0.1-0.3-0.2-0.5l0,0
		C39.4,15,39.2,14.9,39,14.9L39,14.9C39,14.9,39,14.9,39,14.9 M38.5,16.3v16.9c-2.4,1.2-4.4,3.1-5.6,5.6l0,0H16
		C18.1,27.3,27,18.4,38.5,16.3"/>
	<defs>
		<filter id="Adobe_OpacityMaskFilter_3_" filterUnits="userSpaceOnUse" x="14.6" y="48.1" width="25.1" height="25.1">
			<feColorMatrix  type="matrix" values="1 0 0 0 0  0 1 0 0 0  0 0 1 0 0  0 0 0 1 0"/>
		</filter>
	</defs>
	<mask maskUnits="userSpaceOnUse" x="14.6" y="48.1" width="25.1" height="25.1" id="mask-20_1_">
		<g class="st22">
			<path id="path-19_1_" class="st16" d="M15.2,48.1c-0.2,0-0.3,0.1-0.5,0.2l0,0c-0.1,0.1-0.2,0.3-0.1,0.5l0,0
				c2,12.6,11.8,22.3,24.4,24.3l0,0c0,0,0.1,0,0.1,0l0,0c0.1,0,0.3-0.1,0.4-0.1l0,0c0.1-0.1,0.2-0.3,0.2-0.5l0,0V54.4
				c0-0.2-0.1-0.5-0.4-0.6l0,0c-2.4-1.1-4.4-3-5.5-5.5l0,0c-0.1-0.2-0.3-0.4-0.6-0.4l0,0H15.2z M16,49.3h16.9
				c1.2,2.4,3.1,4.4,5.6,5.6l0,0v16.9C27,69.7,18.1,60.7,16,49.3L16,49.3z"/>
		</g>
	</mask>
	
		<linearGradient id="Fill-31_1_" gradientUnits="userSpaceOnUse" x1="-216.9794" y1="449.3524" x2="-215.9794" y2="449.3524" gradientTransform="matrix(25.0737 0 0 -25.0624 5455.0962 11322.4424)">
		<stop  offset="0" style="stop-color:#7C72FF"/>
		<stop  offset="1" style="stop-color:#6D64F4"/>
	</linearGradient>
	<path id="Fill-31" class="st23" d="M15.2,48.1c-0.2,0-0.3,0.1-0.5,0.2l0,0c-0.1,0.1-0.2,0.3-0.1,0.5l0,0
		c2,12.6,11.8,22.3,24.4,24.3l0,0c0,0,0.1,0,0.1,0l0,0c0.1,0,0.3-0.1,0.4-0.1l0,0c0.1-0.1,0.2-0.3,0.2-0.5l0,0V54.4
		c0-0.2-0.1-0.5-0.4-0.6l0,0c-2.4-1.1-4.4-3-5.5-5.5l0,0c-0.1-0.2-0.3-0.4-0.6-0.4l0,0H15.2z M16,49.3h16.9c1.2,2.4,3.1,4.4,5.6,5.6
		l0,0v16.9C27,69.7,18.1,60.7,16,49.3L16,49.3z"/>
	<defs>
		<filter id="Adobe_OpacityMaskFilter_4_" filterUnits="userSpaceOnUse" x="47.8" y="48.1" width="25.1" height="25.1">
			<feColorMatrix  type="matrix" values="1 0 0 0 0  0 1 0 0 0  0 0 1 0 0  0 0 0 1 0"/>
		</filter>
	</defs>
	<mask maskUnits="userSpaceOnUse" x="47.8" y="48.1" width="25.1" height="25.1" id="mask-23_1_">
		<g class="st24">
			<path id="path-22_1_" class="st16" d="M54.2,48.1c-0.2,0-0.5,0.1-0.6,0.4l0,0c-1.1,2.4-3,4.4-5.5,5.5l0,0
				c-0.2,0.1-0.4,0.3-0.4,0.6l0,0v18.1c0,0.2,0.1,0.4,0.2,0.5l0,0c0.1,0.1,0.3,0.1,0.4,0.1l0,0c0,0,0.1,0,0.1,0l0,0
				c12.6-2,22.3-11.8,24.4-24.3l0,0c0-0.2,0-0.4-0.1-0.5l0,0c-0.1-0.1-0.3-0.2-0.5-0.2l0,0H54.2z M49,54.8c2.4-1.2,4.4-3.1,5.6-5.6
				l0,0h16.9c-2.1,11.5-11,20.4-22.5,22.5l0,0V54.8z"/>
		</g>
	</mask>
	
		<linearGradient id="Fill-36_1_" gradientUnits="userSpaceOnUse" x1="-216.9791" y1="449.3524" x2="-215.9791" y2="449.3524" gradientTransform="matrix(25.0727 0 0 -25.0624 5488.0303 11322.4424)">
		<stop  offset="0" style="stop-color:#7C72FF"/>
		<stop  offset="1" style="stop-color:#6D64F4"/>
	</linearGradient>
	<path id="Fill-36" class="st25" d="M54.2,48.1c-0.2,0-0.5,0.1-0.6,0.4l0,0c-1.1,2.4-3,4.4-5.5,5.5l0,0c-0.2,0.1-0.4,0.3-0.4,0.6
		l0,0v18.1c0,0.2,0.1,0.4,0.2,0.5l0,0c0.1,0.1,0.3,0.1,0.4,0.1l0,0c0,0,0.1,0,0.1,0l0,0c12.6-2,22.3-11.8,24.4-24.3l0,0
		c0-0.2,0-0.4-0.1-0.5l0,0c-0.1-0.1-0.3-0.2-0.5-0.2l0,0H54.2z M49,54.8c2.4-1.2,4.4-3.1,5.6-5.6l0,0h16.9
		c-2.1,11.5-11,20.4-22.5,22.5l0,0V54.8z"/>
</g>
</svg>
